<?xml version="1.0" standalone="no"?>
<!DOCTYPE svg PUBLIC "-//W3C//DTD SVG 20010904//EN"
 "http://www.w3.org/TR/2001/REC-SVG-20010904/DTD/svg10.dtd">
<svg version="1.0" xmlns="http://www.w3.org/2000/svg"
 width="674.000000pt" height="674.000000pt" viewBox="0 0 674.000000 674.000000"
 preserveAspectRatio="xMidYMid meet">
<metadata>
Created by potrace 1.11, written by Peter Selinger 2001-2013
</metadata>
<g transform="translate(0.000000,674.000000) scale(0.100000,-0.100000)"
fill="#000000" stroke="none">
<path d="M3055 6609 c-614 -54 -1239 -306 -1735 -699 -135 -107 -403 -375
-510 -510 -574 -725 -816 -1653 -669 -2570 85 -536 324 -1074 669 -1510 107
-135 375 -403 510 -510 436 -345 974 -584 1510 -669 917 -147 1845 95 2570
669 135 107 403 375 510 510 345 436 584 974 669 1510 147 917 -95 1845 -669
2570 -107 135 -375 403 -510 510 -504 399 -1121 645 -1755 700 -140 12 -447
11 -590 -1z m520 -209 c349 -30 705 -120 1012 -256 343 -152 638 -356 919
-638 282 -281 486 -576 638 -919 193 -436 289 -957 258 -1394 -46 -650 -267
-1224 -662 -1723 -106 -135 -355 -384 -490 -490 -121 -96 -315 -226 -445 -298
-470 -259 -1097 -401 -1612 -364 -650 46 -1224 267 -1723 662 -135 106 -384
355 -490 490 -96 121 -226 315 -298 445 -259 470 -401 1097 -364 1612 46 650
267 1224 662 1723 106 135 355 384 490 490 205 163 437 304 663 404 452 200
985 295 1442 256z"/>
<path d="M1795 5861 c-18 -30 92 -94 355 -204 318 -134 760 -335 740 -337 -3
0 -192 29 -420 64 -355 55 -417 63 -429 51 -36 -35 32 -98 214 -200 322 -182
517 -295 509 -295 -5 0 -153 11 -329 25 -176 14 -328 25 -337 25 -27 0 -23
-47 7 -90 50 -72 318 -276 531 -404 l56 -34 -56 -36 c-80 -51 -139 -80 -238
-114 -287 -102 -489 -87 -1083 77 -82 23 -206 53 -275 67 -140 28 -337 44
-326 26 12 -19 239 -167 371 -242 241 -135 318 -197 369 -294 67 -127 15 -219
-289 -510 -96 -92 -184 -181 -196 -198 l-23 -31 54 7 c79 10 203 62 448 184
119 60 298 146 397 192 488 224 565 246 778 217 59 -8 110 -17 113 -20 3 -3
-65 -92 -151 -197 -190 -233 -174 -213 -229 -282 -25 -31 -46 -61 -46 -67 0
-15 69 -13 167 4 105 19 289 30 295 19 3 -5 -111 -119 -254 -253 -161 -152
-258 -250 -256 -260 7 -36 47 -27 318 78 145 56 298 104 370 116 44 7 43 6
-110 -113 -85 -67 -216 -168 -290 -226 -74 -58 -142 -106 -151 -106 -8 0 -71
16 -140 35 -308 88 -475 123 -628 132 -73 4 -102 3 -97 -5 12 -19 239 -167
371 -242 241 -135 318 -197 369 -294 67 -127 15 -219 -289 -510 -96 -92 -184
-181 -196 -198 l-23 -31 54 7 c79 10 203 62 448 184 119 60 298 146 397 192
488 224 565 246 778 217 59 -8 110 -17 113 -20 3 -3 -65 -92 -151 -197 -190
-233 -174 -213 -229 -282 -25 -31 -46 -61 -46 -67 0 -15 69 -13 167 4 105 19
289 30 295 19 3 -5 -111 -119 -254 -253 -161 -152 -258 -250 -256 -260 7 -36
47 -27 318 78 145 56 298 104 370 116 44 7 43 6 -110 -113 -85 -66 -245 -191
-355 -277 -110 -86 -228 -178 -262 -203 -34 -26 -62 -50 -63 -54 0 -4 12 -16
27 -25 44 -29 203 -23 317 11 237 71 627 261 861 418 217 146 378 300 490 468
35 52 83 122 106 155 23 33 57 93 76 132 33 69 36 82 49 250 14 190 31 314 42
324 4 3 117 34 252 69 275 70 316 84 485 165 66 32 139 66 163 76 62 25 171
101 172 120 0 25 -44 39 -123 39 -80 0 -89 4 -173 73 -75 62 -180 113 -274
133 -90 19 -305 14 -470 -12 -58 -9 -114 -17 -125 -18 -16 -1 -39 38 -122 204
-57 113 -122 239 -145 280 -43 78 -138 209 -179 247 -39 36 -136 90 -230 129
-80 33 -89 39 -89 63 1 49 29 244 37 251 5 4 118 35 253 70 275 70 316 84 485
165 66 32 139 66 163 76 62 25 171 101 172 120 0 25 -44 39 -123 39 -80 0 -89
4 -173 73 -75 62 -180 113 -274 133 -90 19 -305 14 -470 -12 -58 -9 -114 -17
-125 -18 -16 -1 -39 38 -122 204 -57 113 -122 239 -145 280 -51 93 -145 218
-195 260 -55 46 -220 124 -358 169 -316 103 -955 234 -1351 277 -43 4 -64 3
-69 -5z m1684 -3199 l33 -20 -56 -36 c-155 -99 -342 -161 -541 -180 l-60 -6
125 63 c162 81 259 136 340 190 73 49 57 50 159 -11z"/>
</g>
</svg>
